<?xml version="1.0" encoding="UTF-8" standalone="no"?>
<svg
   height="24px"
   viewBox="0 0 24 24"
   width="24px"
   fill="#FFFFFF"
   version="1.1"
   id="svg6"
   sodipodi:docname="refresh.svg"
   inkscape:version="1.2.2 (b0a8486541, 2022-12-01)"
   xmlns:inkscape="http://www.inkscape.org/namespaces/inkscape"
   xmlns:sodipodi="http://sodipodi.sourceforge.net/DTD/sodipodi-0.dtd"
   xmlns="http://www.w3.org/2000/svg"
   xmlns:svg="http://www.w3.org/2000/svg">
  <defs
     id="defs10" />
  <sodipodi:namedview
     id="namedview8"
     pagecolor="#ffffff"
     bordercolor="#666666"
     borderopacity="1.0"
     inkscape:showpageshadow="2"
     inkscape:pageopacity="0.0"
     inkscape:pagecheckerboard="0"
     inkscape:deskcolor="#d1d1d1"
     showgrid="false"
     inkscape:zoom="29.583333"
     inkscape:cx="12.016901"
     inkscape:cy="12"
     inkscape:window-width="1920"
     inkscape:window-height="983"
     inkscape:window-x="435"
     inkscape:window-y="768"
     inkscape:window-maximized="1"
     inkscape:current-layer="svg6" />
  <path
     d="M0 0h24v24H0V0z"
     fill="none"
     id="path2" />
  <path
     d="M 20.442442,3.5550842 C 18.275163,1.3878049 15.300759,0.04259705 11.997527,0.04259705 5.3910615,0.04259705 0.05507042,5.3935349 0.05507042,12 c 0,6.606465 5.33599108,11.957403 11.94245658,11.957403 5.575139,0 10.223579,-3.811422 11.55384,-8.968052 h -3.108925 c -1.225633,3.482593 -4.543813,5.978701 -8.444915,5.978701 -4.9473758,0 -8.9680526,-4.020677 -8.9680526,-8.968052 0,-4.9473755 4.0206768,-8.9680522 8.9680526,-8.9680522 2.481161,0 4.69328,1.031326 6.30753,2.6605221 L 13.492202,10.505325 H 23.95493 V 0.04259705 Z"
     id="path4"
     style="stroke-width:1.49468" />
</svg>
